<svg width="92" height="24" viewBox="0 0 92 24" fill="none" xmlns="http://www.w3.org/2000/svg">
<path d="M15.8824 8.34225C15.4759 7.59358 14.8877 7.02674 14.1176 6.64171C13.369 6.23529 12.4813 6.03208 11.4545 6.03208C9.67914 6.03208 8.25668 6.62032 7.18717 7.79679C6.11765 8.95187 5.58289 10.5027 5.58289 12.4492C5.58289 14.5241 6.13904 16.1497 7.25134 17.3262C8.38503 18.4813 9.93583 19.0588 11.9037 19.0588C13.2513 19.0588 14.385 18.7166 15.3048 18.0321C16.246 17.3476 16.9305 16.3636 17.3583 15.0802H10.3957V11.0374H22.3316V16.139C21.9251 17.508 21.2299 18.7807 20.246 19.9572C19.2834 21.1337 18.0535 22.0856 16.5561 22.8128C15.0588 23.5401 13.369 23.9037 11.4866 23.9037C9.26203 23.9037 7.27273 23.4225 5.51872 22.4599C3.7861 21.4759 2.42781 20.1176 1.44385 18.385C0.481283 16.6524 0 14.6738 0 12.4492C0 10.2246 0.481283 8.24599 1.44385 6.51337C2.42781 4.75936 3.7861 3.40107 5.51872 2.4385C7.25134 1.45454 9.22995 0.962566 11.4545 0.962566C14.1497 0.962566 16.4171 1.61497 18.2567 2.91978C20.1176 4.2246 21.3476 6.03209 21.9465 8.34225H15.8824Z" fill="black"/>
<path d="M33.1995 24C31.4455 24 29.8626 23.6257 28.4509 22.877C27.0605 22.1283 25.9589 21.0588 25.1461 19.6684C24.3546 18.2781 23.9589 16.6524 23.9589 14.7914C23.9589 12.9519 24.3653 11.3369 25.1781 9.94652C25.991 8.53476 27.1033 7.45454 28.515 6.70588C29.9268 5.95722 31.5097 5.58289 33.2637 5.58289C35.0177 5.58289 36.6006 5.95722 38.0124 6.70588C39.4241 7.45454 40.5364 8.53476 41.3493 9.94652C42.1621 11.3369 42.5685 12.9519 42.5685 14.7914C42.5685 16.631 42.1514 18.2567 41.3172 19.6684C40.5043 21.0588 39.3813 22.1283 37.9482 22.877C36.5364 23.6257 34.9535 24 33.1995 24ZM33.1995 19.2513C34.2477 19.2513 35.1354 18.8663 35.8626 18.0963C36.6113 17.3262 36.9856 16.2246 36.9856 14.7914C36.9856 13.3583 36.622 12.2567 35.8947 11.4866C35.1888 10.7166 34.3118 10.3316 33.2637 10.3316C32.1942 10.3316 31.3065 10.7166 30.6006 11.4866C29.8947 12.2353 29.5418 13.3369 29.5418 14.7914C29.5418 16.2246 29.884 17.3262 30.5685 18.0963C31.2744 18.8663 32.1514 19.2513 33.1995 19.2513Z" fill="black"/>
<path d="M62.3242 8.47059C62.3242 9.7754 62.0247 10.9733 61.4258 12.0642C60.8269 13.1337 59.9071 14 58.6664 14.6631C57.4258 15.3262 55.8857 15.6578 54.0461 15.6578H50.6451V23.7433H45.1584V1.21925H54.0461C55.8429 1.21925 57.3616 1.52941 58.6023 2.14973C59.8429 2.77005 60.7734 3.62567 61.3937 4.71658C62.014 5.80748 62.3242 7.05882 62.3242 8.47059ZM53.629 11.2941C54.6771 11.2941 55.4579 11.0481 55.9713 10.5561C56.4846 10.0642 56.7413 9.36898 56.7413 8.47059C56.7413 7.57219 56.4846 6.87701 55.9713 6.38503C55.4579 5.89305 54.6771 5.64706 53.629 5.64706H50.6451V11.2941H53.629Z" fill="black"/>
<path d="M63.7688 14.7594C63.7688 12.9198 64.111 11.3048 64.7955 9.91444C65.5014 8.52406 66.4533 7.45454 67.6511 6.70588C68.849 5.95722 70.1859 5.58289 71.6618 5.58289C72.9239 5.58289 74.0255 5.83957 74.9667 6.35294C75.9292 6.86631 76.6672 7.54011 77.1806 8.37433V5.83957H82.6672V23.7433H77.1806V21.2086C76.6458 22.0428 75.8971 22.7166 74.9346 23.2299C73.9934 23.7433 72.8918 24 71.6298 24C70.1752 24 68.849 23.6257 67.6511 22.877C66.4533 22.107 65.5014 21.0267 64.7955 19.6364C64.111 18.2246 63.7688 16.5989 63.7688 14.7594ZM77.1806 14.7914C77.1806 13.4225 76.7955 12.3422 76.0255 11.5508C75.2768 10.7594 74.357 10.3636 73.2661 10.3636C72.1752 10.3636 71.2447 10.7594 70.4747 11.5508C69.726 12.3209 69.3517 13.3904 69.3517 14.7594C69.3517 16.1283 69.726 17.2193 70.4747 18.0321C71.2447 18.8235 72.1752 19.2192 73.2661 19.2192C74.357 19.2192 75.2768 18.8235 76.0255 18.0321C76.7955 17.2406 77.1806 16.1604 77.1806 14.7914Z" fill="black"/>
<path d="M91.8023 0V23.7433H86.3157V0H91.8023Z" fill="black"/>
</svg>
